<svg 
          width="17.60835075378418" 
          height="17.10344696044922" fill="none" 
          xmlns="http://www.w3.org/2000/svg">
          <path d="M 13.895810022735445 12.306837859533717 L 17.60835075378418 15.912083296615101 L 16.381817335309243 17.10344696044922 L 12.67014293678545 13.49736003215735 C 11.28908985397164 14.572721061343742 9.571302287899945 15.157612804598779 7.801278094521645 15.155166770481369 C 3.4949726425581122 15.155166770481369 0 11.760409359292968 0 7.577583385240684 C 0 3.394757411188401 3.4949726425581122 0 7.801278094521645 0 C 12.107583546485177 0 15.60255618904329 3.394757411188401 15.60255618904329 7.577583385240684 C 15.605074431523573 9.296853709501555 15.002916340698793 10.965385245273715 13.895810022735445 12.306837859533717 Z M 12.15699136663496 11.682107718912722 C 13.257069479324404 10.583261818259652 13.871423983005595 9.110300608341925 13.868938834705146 7.577583385240684 C 13.86893883470515 4.320906411311745 11.153227338412988 1.6839074189423744 7.801278094521645 1.6839074189423744 C 4.448462104778774 1.6839074189423744 1.7336173543381432 4.320906411311745 1.7336173543381432 7.577583385240684 C 1.7336173543381432 10.833418466484325 4.448462104778774 13.471259351538995 7.801278094521645 13.471259351538995 C 9.37924202969462 13.473673240422738 10.895685919100435 12.876934805599918 12.026970395720868 11.80840045415355 L 12.15699136663496 11.682107718912722 L 12.15699136663496 11.682107718912722 Z" fill="rgb(130.75692683458328,130.75692683458328,130.75692683458328)"/>
        </svg>